<svg xmlns="http://www.w3.org/2000/svg" viewBox="0 0 640 360" role="img" aria-label="-/JB) 'D3D'E">
  <defs>
    <linearGradient id="sky" x1="0" y1="0" x2="0" y2="1">
      <stop offset="0%" stop-color="#b8e0c8"/>
      <stop offset="100%" stop-color="#e8f5ee"/>
    </linearGradient>
    <linearGradient id="field" x1="0" y1="0" x2="1" y2="1">
      <stop offset="0%" stop-color="#2d8a57"/>
      <stop offset="100%" stop-color="#1a5c3a"/>
    </linearGradient>
  </defs>
  <rect width="640" height="360" fill="url(#sky)"/>
  <ellipse cx="520" cy="80" rx="48" ry="48" fill="#fff7cc" opacity="0.9"/>
  <path d="M0 220 C120 180 220 250 320 210 C420 170 520 230 640 190 L640 360 L0 360 Z" fill="#3fa86b" opacity="0.35"/>
  <rect x="90" y="150" width="460" height="160" rx="16" fill="url(#field)"/>
  <rect x="112" y="170" width="416" height="120" rx="8" fill="none" stroke="#ffffff" stroke-width="3" opacity="0.85"/>
  <circle cx="320" cy="230" r="28" fill="none" stroke="#ffffff" stroke-width="3" opacity="0.85"/>
  <line x1="320" y1="170" x2="320" y2="290" stroke="#ffffff" stroke-width="3" opacity="0.85"/>
  <circle cx="150" cy="120" r="18" fill="#1a5c3a"/>
  <rect x="145" y="135" width="10" height="40" fill="#4a3728"/>
  <circle cx="500" cy="110" r="22" fill="#2d8a57"/>
  <rect x="495" y="128" width="10" height="45" fill="#4a3728"/>
  <text x="320" y="340" text-anchor="middle" font-family="Cairo, Tahoma, sans-serif" font-size="28" fill="#1a5c3a" font-weight="700">-/JB) 'D3D'E</text>
</svg>
